<svg width="22" height="18" viewBox="0 0 22 18" fill="none" xmlns="http://www.w3.org/2000/svg">
<path d="M21.8671 8.37266C19.7958 3.82613 15.6952 0.75 11 0.75C6.30474 0.75 2.20303 3.82828 0.132896 8.37309C0.0455229 8.56752 0 8.78234 0 9.00022C0 9.21809 0.0455229 9.43291 0.132896 9.62734C2.20418 14.1739 6.30474 17.25 11 17.25C15.6952 17.25 19.7969 14.1717 21.8671 9.62691C21.9544 9.43248 22 9.21766 22 8.99978C22 8.78191 21.9544 8.56709 21.8671 8.37266ZM11 15.1875C9.91218 15.1875 8.84881 14.8246 7.94434 14.1447C7.03987 13.4648 6.33492 12.4985 5.91864 11.3679C5.50236 10.2372 5.39344 8.99314 5.60566 7.79288C5.81788 6.59262 6.3417 5.49011 7.11089 4.62478C7.88008 3.75944 8.86009 3.17014 9.92698 2.93139C10.9939 2.69265 12.0997 2.81518 13.1047 3.2835C14.1097 3.75181 14.9687 4.54488 15.5731 5.56241C16.1774 6.57994 16.5 7.77623 16.5 9C16.5003 9.81266 16.3583 10.6174 16.082 11.3683C15.8058 12.1192 15.4006 12.8015 14.8898 13.3761C14.3791 13.9507 13.7726 14.4065 13.1052 14.7173C12.4377 15.0281 11.7223 15.1879 11 15.1875ZM11 4.875C10.6727 4.88015 10.3475 4.93492 10.0333 5.03785C10.2923 5.43388 10.4166 5.92124 10.3837 6.41154C10.3507 6.90184 10.1626 7.36261 9.85357 7.71029C9.54452 8.05798 9.13494 8.26955 8.69912 8.30664C8.2633 8.34373 7.8301 8.20388 7.47807 7.91246C7.27761 8.7433 7.3138 9.62394 7.58153 10.4304C7.84927 11.2369 8.33507 11.9287 8.97056 12.4083C9.60605 12.8879 10.3592 13.1312 11.1241 13.104C11.889 13.0768 12.627 12.7805 13.2343 12.2567C13.8416 11.733 14.2876 11.0081 14.5096 10.1842C14.7316 9.36032 14.7183 8.47887 14.4716 7.66392C14.2249 6.84897 13.7573 6.14156 13.1345 5.64127C12.5118 5.14097 11.7652 4.87297 11 4.875Z" fill="#FCFCFC"/>
</svg>
